<svg viewBox="0 0 800 600" xmlns="http://www.w3.org/2000/svg">
  <!-- Sfondo -->
  <rect width="800" height="600" fill="#f8f9fa" rx="8" ry="8"/>
  
  <!-- Titolo -->
  <text x="400" y="40" font-family="Arial" font-size="24" text-anchor="middle" font-weight="bold">Architettura CaféConnect AI</text>
  
  <!-- Config Manager -->
  <rect x="310" y="60" width="180" height="70" fill="#2a4365" rx="5" ry="5"/>
  <text x="400" y="100" font-family="Arial" font-size="16" text-anchor="middle" fill="white" font-weight="bold">ConfigManager</text>
  
  <!-- App Initializer -->
  <rect x="310" y="160" width="180" height="60" fill="#4299e1" rx="5" ry="5"/>
  <text x="400" y="195" font-family="Arial" font-size="16" text-anchor="middle" fill="white" font-weight="bold">AppInitializer</text>
  
  <!-- Moduli Core -->
  <rect x="100" y="250" width="180" height="60" fill="#4a69dd" rx="5" ry="5"/>
  <text x="190" y="285" font-family="Arial" font-size="16" text-anchor="middle" fill="white" font-weight="bold">AIProviderRegistry</text>
  
  <rect x="310" y="250" width="180" height="60" fill="#4a69dd" rx="5" ry="5"/>
  <text x="400" y="285" font-family="Arial" font-size="16" text-anchor="middle" fill="white" font-weight="bold">FunctionRegistry</text>
  
  <rect x="520" y="250" width="180" height="60" fill="#4a69dd" rx="5" ry="5"/>
  <text x="610" y="285" font-family="Arial" font-size="16" text-anchor="middle" fill="white" font-weight="bold">CatalogService</text>
  
  <!-- Servizi -->
  <rect x="100" y="340" width="180" height="60" fill="#63b3ed" rx="5" ry="5"/>
  <text x="190" y="375" font-family="Arial" font-size="16" text-anchor="middle" fill="white" font-weight="bold">AIService</text>
  
  <rect x="310" y="340" width="180" height="60" fill="#63b3ed" rx="5" ry="5"/>
  <text x="400" y="375" font-family="Arial" font-size="16" text-anchor="middle" fill="white" font-weight="bold">ThemeService</text>
  
  <rect x="520" y="340" width="180" height="60" fill="#63b3ed" rx="5" ry="5"/>
  <text x="610" y="375" font-family="Arial" font-size="16" text-anchor="middle" fill="white" font-weight="bold">UserContextService</text>
  
  <!-- UI Components -->
  <rect x="100" y="430" width="180" height="60" fill="#90cdf4" rx="5" ry="5"/>
  <text x="190" y="465" font-family="Arial" font-size="16" text-anchor="middle" fill="white" font-weight="bold">ServiceContext</text>
  
  <rect x="310" y="430" width="180" height="60" fill="#90cdf4" rx="5" ry="5"/>
  <text x="400" y="465" font-family="Arial" font-size="16" text-anchor="middle" fill="white" font-weight="bold">BusinessConfigPanel</text>
  
  <rect x="520" y="430" width="180" height="60" fill="#90cdf4" rx="5" ry="5"/>
  <text x="610" y="465" font-family="Arial" font-size="16" text-anchor="middle" fill="white" font-weight="bold">DynamicUIRenderer</text>
  
  <!-- App e ChatInterface -->
  <rect x="240" y="520" width="140" height="60" fill="#2a4365" rx="5" ry="5"/>
  <text x="310" y="555" font-family="Arial" font-size="16" text-anchor="middle" fill="white" font-weight="bold">App</text>
  
  <rect x="420" y="520" width="140" height="60" fill="#2a4365" rx="5" ry="5"/>
  <text x="490" y="555" font-family="Arial" font-size="16" text-anchor="middle" fill="white" font-weight="bold">ChatInterface</text>
  
  <!-- Connessioni -->
  <!-- Config Manager connessioni -->
  <line x1="400" y1="130" x2="400" y2="160" stroke="#2a4365" stroke-width="2"/>
  
  <!-- App Initializer connessioni -->
  <line x1="310" y1="220" x2="190" y2="250" stroke="#4299e1" stroke-width="2"/>
  <line x1="400" y1="220" x2="400" y2="250" stroke="#4299e1" stroke-width="2"/>
  <line x1="490" y1="220" x2="610" y2="250" stroke="#4299e1" stroke-width="2"/>
  
  <!-- Registry connessioni -->
  <line x1="190" y1="310" x2="190" y2="340" stroke="#4a69dd" stroke-width="2"/>
  <line x1="400" y1="310" x2="400" y2="340" stroke="#4a69dd" stroke-width="2"/>
  <line x1="610" y1="310" x2="610" y2="340" stroke="#4a69dd" stroke-width="2"/>
  
  <!-- Service connessioni -->
  <line x1="190" y1="400" x2="190" y2="430" stroke="#63b3ed" stroke-width="2"/>
  <line x1="400" y1="400" x2="400" y2="430" stroke="#63b3ed" stroke-width="2"/>
  <line x1="610" y1="400" x2="610" y2="430" stroke="#63b3ed" stroke-width="2"/>
  
  <!-- Context e App connessioni -->
  <line x1="190" y1="490" x2="260" y2="520" stroke="#90cdf4" stroke-width="2"/>
  <line x1="400" y1="490" x2="310" y2="520" stroke="#90cdf4" stroke-width="2"/>
  <line x1="400" y1="490" x2="450" y2="520" stroke="#90cdf4" stroke-width="2"/>
  <line x1="610" y1="490" x2="530" y2="520" stroke="#90cdf4" stroke-width="2"/>
  
  <!-- Legenda -->
  <rect x="630" y="520" width="20" height="20" fill="#2a4365" rx="3" ry="3"/>
  <text x="660" y="535" font-family="Arial" font-size="14" text-anchor="start">Core Components</text>
  
  <rect x="630" y="550" width="20" height="20" fill="#4a69dd" rx="3" ry="3"/>
  <text x="660" y="565" font-family="Arial" font-size="14" text-anchor="start">Registry Modules</text>
  
  <rect x="630" y="580" width="20" height="20" fill="#63b3ed" rx="3" ry="3"/>
  <text x="660" y="595" font-family="Arial" font-size="14" text-anchor="start">Services</text>
</svg>